<svg width="20" height="20" viewBox="0 0 20 20" fill="none" xmlns="http://www.w3.org/2000/svg">
<path d="M3.33332 6.66668C4.88664 6.66668 6.19164 5.60445 6.56164 4.16668H19.1666C19.6269 4.16668 20 3.79359 20 3.33336C20 2.87309 19.6269 2.5 19.1667 2.5H6.56168C6.19168 1.06223 4.88668 0 3.33336 0C1.49227 0 0 1.49227 0 3.33332C0 5.17438 1.49227 6.66668 3.33332 6.66668ZM3.33332 1.66668C4.25391 1.66668 5 2.41273 5 3.33336C5 4.25398 4.25395 5 3.33332 5C2.4127 5 1.66664 4.25395 1.66664 3.33332C1.66664 2.4127 2.41273 1.66668 3.33332 1.66668Z" fill="black"/>
<path d="M16.6667 13.3333C15.1134 13.3333 13.8084 14.3955 13.4384 15.8333H0.83332C0.373086 15.8333 0 16.2064 0 16.6667C0 17.1269 0.373086 17.5 0.83332 17.5H13.4383C13.8083 18.9378 15.1133 20 16.6666 20C18.5077 20 20 18.5077 20 16.6667C20 14.8256 18.5077 13.3333 16.6667 13.3333ZM16.6667 18.3333C15.7461 18.3333 15 17.5873 15 16.6666C15 15.746 15.7461 15 16.6667 15C17.5873 15 18.3334 15.746 18.3334 16.6667C18.3334 17.5873 17.5873 18.3333 16.6667 18.3333Z" fill="black"/>
<path d="M19.1667 9.16668H13.2283C12.8583 7.72891 11.5533 6.66669 10 6.66669C8.44668 6.66669 7.14168 7.72891 6.77168 9.16668H0.83332C0.373086 9.16668 0 9.53977 0 10C0 10.4602 0.373086 10.8333 0.83332 10.8333H6.77164C7.14164 12.2711 8.44664 13.3333 9.99996 13.3333C11.5533 13.3333 12.8583 12.2711 13.2283 10.8333H19.1666C19.6268 10.8333 19.9999 10.4602 19.9999 10C19.9999 9.53977 19.6269 9.16668 19.1667 9.16668ZM10 11.6667C9.07941 11.6667 8.33332 10.9206 8.33332 10C8.33332 9.07938 9.07938 8.33332 10 8.33332C10.9206 8.33332 11.6667 9.07938 11.6667 10C11.6667 10.9206 10.9206 11.6667 10 11.6667Z" fill="black"/>
</svg>
