<svg width="20" height="20" viewBox="0 0 20 20" fill="none" xmlns="http://www.w3.org/2000/svg">
<g clip-path="url(#clip0)">
<path d="M17.072 2.92895C15.1833 1.0402 12.6721 0 10.0009 0C7.3298 0 4.81867 1.0402 2.92988 2.92895C1.04117 4.8177 0.000976562 7.32891 0.000976562 10C0.000976562 12.6711 1.04117 15.1823 2.92992 17.0711C4.81867 18.9598 7.32988 20 10.001 20C11.658 20 13.2997 19.5861 14.7486 18.8032C15.0409 18.6453 15.1498 18.2803 14.9918 17.9879C14.8339 17.6957 14.469 17.5868 14.1766 17.7447C12.9028 18.433 11.4589 18.7968 10.001 18.7968C5.15039 18.7968 1.20414 14.8506 1.20414 10C1.20414 5.14941 5.15039 1.2032 10.0009 1.2032C14.8515 1.2032 18.7977 5.14945 18.7977 10C18.7977 11.148 18.5189 12.5139 18.2686 13.0218C18.0466 13.4722 17.4178 14.1065 16.7147 14.1065C15.8046 14.1065 15.0641 13.3661 15.0641 12.456V6.11266C15.0641 5.78043 14.7947 5.51105 14.4625 5.51105C14.1303 5.51105 13.8609 5.78039 13.8609 6.11266V6.72734C12.9314 5.63277 11.5461 4.93684 10.0009 4.93684C7.20914 4.93684 4.93777 7.20816 4.93777 10C4.93777 12.7918 7.20906 15.0632 10.0009 15.0632C11.5962 15.0632 13.0213 14.3213 13.95 13.1647C14.266 14.3965 15.3857 15.3097 16.7146 15.3097C17.8752 15.3097 18.9179 14.4263 19.3479 13.5537C19.7141 12.8105 20.0009 11.2496 20.0009 10C20.0009 7.32891 18.9607 4.8177 17.072 2.92895ZM10.0009 13.86C7.87258 13.86 6.14098 12.1284 6.14098 10C6.14098 7.8716 7.87254 6.14004 10.0009 6.14004C12.1293 6.14004 13.8609 7.8716 13.8609 10C13.8609 12.1284 12.1293 13.86 10.0009 13.86Z" fill="#696969"/>
</g>
<defs>
<clipPath id="clip0">
<rect width="20" height="20" fill="white"/>
</clipPath>
</defs>
</svg>
