<svg width="20" height="20" viewBox="0 0 20 20" fill="none" xmlns="http://www.w3.org/2000/svg">
<path d="M15.1515 8.34067V5.15145C15.1515 2.31097 12.8405 0 9.99997 0C7.15943 0 4.84852 2.31097 4.84852 5.15145V8.34055C3.71955 9.57964 3.03027 11.226 3.03027 13.0303C3.03027 16.8734 6.15688 20 9.99997 20C13.8431 20 16.9697 16.8734 16.9697 13.0303C16.9697 11.226 16.2804 9.57964 15.1515 8.34067ZM9.99997 1.81818C11.838 1.81818 13.3333 3.31352 13.3333 5.15145V6.91079C12.3425 6.36897 11.2066 6.06061 9.99997 6.06061C8.79336 6.06061 7.65749 6.36897 6.6667 6.91079V5.15145C6.6667 3.31352 8.16197 1.81818 9.99997 1.81818ZM9.99997 18.1818C7.15943 18.1818 4.84846 15.8708 4.84846 13.0303C4.84846 10.1898 7.15943 7.87879 9.99997 7.87879C12.8405 7.87879 15.1515 10.1898 15.1515 13.0303C15.1515 15.8708 12.8405 18.1818 9.99997 18.1818Z" fill="#696969"/>
<path d="M10 10.6061C9.16456 10.6061 8.48486 11.2858 8.48486 12.1212C8.48486 12.6159 8.72317 13.0558 9.09092 13.3325V14.5455C9.09092 15.0475 9.49795 15.4545 10 15.4545C10.5021 15.4545 10.9091 15.0475 10.9091 14.5455V13.3325C11.2769 13.0558 11.5152 12.6158 11.5152 12.1212C11.5152 11.2858 10.8355 10.6061 10 10.6061Z" fill="#696969"/>
</svg>
