<svg width="20" height="20" viewBox="0 0 20 20" fill="none" xmlns="http://www.w3.org/2000/svg">
<g clip-path="url(#clip0)">
<path d="M9.8172 9.63408C11.1407 9.63408 12.2867 9.15938 13.2233 8.22279C14.1595 7.28636 14.6344 6.14058 14.6344 4.81689C14.6344 3.49365 14.1597 2.34771 13.2231 1.41098C12.2865 0.4747 11.1406 0 9.8172 0C8.4935 0 7.34772 0.4747 6.41129 1.41113C5.47485 2.34756 5 3.49349 5 4.81689C5 6.14058 5.47485 7.28652 6.41129 8.22295C7.34802 9.15922 8.49396 9.63408 9.8172 9.63408ZM7.24014 2.23983C7.95868 1.5213 8.80157 1.17203 9.8172 1.17203C10.8327 1.17203 11.6757 1.5213 12.3944 2.23983C13.1129 2.95852 13.4624 3.80157 13.4624 4.81689C13.4624 5.83251 13.1129 6.6754 12.3944 7.39409C11.6757 8.11278 10.8327 8.46205 9.8172 8.46205C8.80188 8.46205 7.95898 8.11263 7.24014 7.39409C6.52145 6.67555 6.17203 5.83251 6.17203 4.81689C6.17203 3.80157 6.52145 2.95852 7.24014 2.23983Z" fill="#696969"/>
<path d="M18.6457 15.7182C18.6187 15.3285 18.564 14.9034 18.4836 14.4545C18.4024 14.0022 18.2979 13.5747 18.1728 13.1839C18.0434 12.78 17.8678 12.3811 17.6503 11.9989C17.425 11.6022 17.1601 11.2567 16.8628 10.9724C16.552 10.675 16.1714 10.4359 15.7314 10.2615C15.2928 10.088 14.8069 10.0002 14.287 10.0002C14.0828 10.0002 13.8854 10.0839 13.5041 10.3322C13.2694 10.4852 12.9949 10.6622 12.6885 10.858C12.4265 11.0249 12.0716 11.1813 11.6332 11.3229C11.2055 11.4613 10.7712 11.5315 10.3424 11.5315C9.91397 11.5315 9.47971 11.4613 9.0517 11.3229C8.61377 11.1815 8.2587 11.0251 7.99716 10.8582C7.69366 10.6642 7.41901 10.4872 7.18082 10.332C6.7998 10.0838 6.60236 10 6.39819 10C5.87817 10 5.39233 10.088 4.95395 10.2617C4.51419 10.4358 4.13348 10.6749 3.82236 10.9726C3.52512 11.257 3.26022 11.6023 3.035 11.9989C2.81787 12.3811 2.64209 12.7798 2.5127 13.184C2.38773 13.5748 2.2832 14.0022 2.20203 14.4545C2.12146 14.9028 2.06699 15.3281 2.03998 15.7187C2.01343 16.1006 2 16.4981 2 16.8997C2 17.9437 2.33188 18.7889 2.98633 19.4122C3.63269 20.0273 4.48779 20.3392 5.52798 20.3392H15.1581C16.198 20.3392 17.0531 20.0273 17.6996 19.4122C18.3542 18.7894 18.6861 17.9439 18.6861 16.8996C18.6859 16.4966 18.6724 16.0991 18.6457 15.7182ZM16.8915 18.5631C16.4644 18.9696 15.8974 19.1672 15.158 19.1672H5.52798C4.78839 19.1672 4.22137 18.9696 3.79443 18.5632C3.37558 18.1645 3.17203 17.6202 3.17203 16.8997C3.17203 16.525 3.18439 16.1549 3.20911 15.7997C3.23322 15.4512 3.2825 15.0683 3.35559 14.6616C3.42776 14.2598 3.51962 13.8827 3.62888 13.5414C3.7337 13.2141 3.87668 12.89 4.05399 12.5778C4.22321 12.2803 4.41791 12.025 4.63275 11.8193C4.83371 11.6269 5.08701 11.4694 5.38547 11.3513C5.6615 11.2421 5.97171 11.1822 6.30847 11.1732C6.34952 11.1951 6.42261 11.2367 6.54102 11.3139C6.78195 11.4709 7.05966 11.6501 7.36667 11.8462C7.71274 12.0668 8.1586 12.2661 8.69128 12.438C9.23587 12.6141 9.79129 12.7035 10.3426 12.7035C10.8939 12.7035 11.4495 12.6141 11.9937 12.4382C12.5269 12.2659 12.9726 12.0668 13.3191 11.8459C13.6333 11.645 13.9032 11.4711 14.1442 11.3139C14.2626 11.2369 14.3357 11.1951 14.3767 11.1732C14.7136 11.1822 15.0238 11.2421 15.3 11.3513C15.5983 11.4694 15.8516 11.627 16.0526 11.8193C16.2674 12.0248 16.4621 12.2801 16.6313 12.578C16.8088 12.89 16.9519 13.2143 17.0566 13.5413C17.166 13.883 17.258 14.2599 17.33 14.6614C17.403 15.069 17.4524 15.452 17.4765 15.7999V15.8002C17.5014 16.154 17.5139 16.5239 17.5141 16.8997C17.5139 17.6204 17.3104 18.1645 16.8915 18.5631Z" fill="#696969"/>
</g>
<defs>
<clipPath id="clip0">
<rect width="20" height="20" fill="white"/>
</clipPath>
</defs>
</svg>
